<svg width="24" height="24" viewBox="0 0 24 24" fill="none" xmlns="http://www.w3.org/2000/svg">
<path d="M24 4.56608C23.1174 4.94681 22.157 5.22081 21.1676 5.32753C22.1948 4.71732 22.9639 3.75329 23.3308 2.61631C22.367 3.18968 21.3111 3.59173 20.2101 3.80463C19.7499 3.31265 19.1933 2.92072 18.575 2.65325C17.9567 2.38579 17.2899 2.24852 16.6163 2.25001C13.8906 2.25001 11.6986 4.45936 11.6986 7.17058C11.6986 7.5513 11.7447 7.93203 11.8197 8.29833C7.73849 8.08489 4.09855 6.13513 1.67864 3.1499C1.23771 3.90303 1.00665 4.76056 1.00949 5.63326C1.00949 7.34075 1.87766 8.84634 3.20154 9.73181C2.42136 9.70109 1.65944 9.48664 0.977767 9.10593V9.16649C0.977767 11.5576 2.66795 13.5391 4.92056 13.9948C4.49761 14.1046 4.06251 14.1608 3.62553 14.1621C3.30537 14.1621 3.00252 14.1303 2.69679 14.0871C3.31979 16.0368 5.134 17.453 7.29432 17.4992C5.60413 18.823 3.48708 19.6018 1.18832 19.6018C0.775868 19.6018 0.395145 19.5874 0 19.5412C2.18051 20.9401 4.7677 21.7477 7.5539 21.7477C16.599 21.7477 21.5484 14.2543 21.5484 7.75032C21.5484 7.53688 21.5484 7.32345 21.534 7.11001C22.4915 6.40913 23.3308 5.54097 24 4.56608Z" fill="#ffffff"/>
</svg>
